<?xml version="1.0" encoding="UTF-8" standalone="no"?>
<!DOCTYPE svg PUBLIC "-//W3C//DTD SVG 1.1//EN" "http://www.w3.org/Graphics/SVG/1.1/DTD/svg11.dtd">
<svg width="100%" height="100%" viewBox="0 0 256 256" version="1.1" xmlns="http://www.w3.org/2000/svg" xmlns:xlink="http://www.w3.org/1999/xlink" xml:space="preserve" xmlns:serif="http://www.serif.com/" style="fill-rule:evenodd;clip-rule:evenodd;stroke-linejoin:round;stroke-miterlimit:2;">
    <g transform="matrix(1.10571,0,0,1.10571,66.0805,81.5603)">
        <circle cx="56" cy="42" r="94.602" style="fill:white;"/>
        <path d="M56,-52.602C108.212,-52.602 150.602,-10.212 150.602,42C150.602,94.212 108.212,136.602 56,136.602C3.788,136.602 -38.602,94.212 -38.602,42C-38.602,-10.212 3.788,-52.602 56,-52.602ZM56,-50.793C107.214,-50.793 148.793,-9.214 148.793,42C148.793,93.214 107.214,134.793 56,134.793C4.786,134.793 -36.793,93.214 -36.793,42C-36.793,-9.214 4.786,-50.793 56,-50.793Z" style="fill:white;"/>
    </g>
    <g transform="matrix(0.1,0,0,-0.1,0,256)">
        <path d="M1135,2473C1103,2465 1091,2451 1084,2414C1081,2395 1075,2380 1071,2380C1068,2380 1057,2399 1048,2421C1035,2452 1026,2460 1013,2457C905,2427 783,2384 730,2358C669,2327 665,2323 662,2288C659,2253 657,2252 636,2261C604,2276 574,2259 469,2167C351,2064 335,2042 245,1863C174,1721 168,1703 178,1677C188,1651 186,1647 159,1632C117,1608 92,1519 78,1349C68,1231 69,1198 84,1099C106,956 111,946 156,955C196,962 199,955 168,930C147,913 146,911 161,893C172,881 178,855 179,812C181,709 219,643 359,498C421,433 453,407 481,400C531,386 609,322 609,293C610,280 620,266 633,259C645,253 678,231 705,210C733,190 784,161 820,147C856,133 905,114 929,104L973,86L996,113C1023,145 1030,147 1030,120C1030,110 1039,96 1049,90C1074,77 1310,77 1420,90C1488,98 1709,145 1779,166C1788,169 1791,179 1787,199C1783,217 1787,235 1796,246C1810,264 1811,264 1826,242C1847,214 1849,214 1900,247C1938,272 1941,277 1935,307C1928,344 1935,348 1962,323C1989,298 2012,315 2147,459C2292,614 2355,699 2371,765C2377,793 2389,825 2396,837C2408,856 2408,864 2398,881C2387,899 2387,903 2398,907C2466,932 2510,1075 2510,1272C2510,1350 2505,1402 2496,1427C2488,1448 2471,1501 2459,1545C2424,1676 2391,1750 2368,1750C2352,1750 2349,1755 2355,1779C2359,1798 2355,1820 2344,1842C2323,1883 2311,1891 2289,1879C2259,1863 2256,1869 2280,1895L2304,1920L2237,1986C2200,2022 2172,2055 2175,2060C2182,2072 2110,2151 2099,2144C2094,2141 2090,2147 2090,2157C2090,2191 1986,2273 1850,2346C1820,2362 1720,2403 1630,2435C1552,2463 1390,2483 1354,2470C1321,2457 1220,2457 1220,2470C1220,2480 1171,2482 1135,2473ZM1573,2150C1679,2115 1744,2087 1787,2058C1821,2035 1848,2014 1846,2013C1844,2011 1817,2016 1784,2025C1718,2042 1684,2044 1676,2031C1673,2026 1650,2025 1626,2027C1560,2035 1536,2025 1517,1985C1508,1966 1494,1950 1485,1950C1477,1950 1455,1934 1435,1914C1410,1889 1395,1881 1387,1888C1380,1893 1361,1895 1343,1893C1316,1889 1311,1883 1308,1856C1305,1829 1299,1823 1262,1811C1235,1803 1216,1790 1210,1776C1206,1764 1183,1737 1159,1717C1135,1696 1108,1673 1099,1665C1087,1653 1080,1653 1068,1663C1053,1674 1055,1682 1081,1749C1097,1790 1108,1826 1105,1828C1103,1831 1074,1818 1041,1801C1008,1784 972,1770 961,1770C935,1770 943,1747 975,1726C993,1714 1005,1713 1025,1720C1039,1725 1049,1727 1047,1722C1045,1718 1040,1707 1037,1698C1032,1683 1025,1684 970,1711C937,1727 906,1740 901,1740C896,1740 890,1723 888,1703C885,1682 880,1658 876,1650C871,1638 881,1632 921,1623C975,1610 987,1604 978,1595C975,1592 947,1596 914,1605C849,1622 790,1625 790,1611C790,1606 801,1595 815,1586C829,1577 840,1565 840,1559C840,1527 693,1410 653,1410C634,1410 630,1404 630,1381C630,1355 606,1321 595,1332C593,1334 590,1350 588,1368C586,1401 575,1410 567,1388C565,1381 559,1379 554,1383C550,1387 551,1410 557,1433C566,1466 565,1490 554,1546C539,1616 539,1617 565,1668C579,1697 601,1727 613,1735C678,1782 777,1840 791,1840C800,1840 813,1846 819,1854C832,1870 942,1910 972,1910C981,1910 1009,1919 1032,1930C1056,1941 1101,1957 1133,1966C1208,1987 1200,1995 1118,1980C1030,1964 978,1949 958,1932C941,1917 877,1919 838,1935C827,1939 809,1929 780,1901C756,1878 729,1860 719,1860C709,1860 698,1856 695,1850C687,1837 670,1837 670,1851C670,1856 696,1896 729,1938C781,2007 796,2020 880,2064C946,2099 986,2113 1018,2115C1051,2116 1068,2123 1081,2138C1099,2161 1154,2176 1267,2190C1396,2205 1416,2202 1573,2150ZM1891,1924C1899,1914 1915,1884 1927,1856L1948,1805L1927,1799C1908,1794 1910,1791 1946,1776C1982,1761 1989,1753 1999,1716C2005,1692 2027,1646 2049,1614L2088,1555L2069,1436C2055,1345 2045,1309 2026,1281C2011,1260 2000,1239 2000,1232C2000,1203 2046,1112 2064,1104C2078,1098 2086,1084 2088,1065C2090,1039 2082,1028 2035,990C2005,965 1978,934 1975,920C1971,906 1963,884 1955,870C1948,856 1939,831 1936,813C1924,759 1908,755 1857,792C1808,828 1800,844 1800,906C1800,960 1783,974 1730,965C1693,959 1690,956 1703,942C1731,909 1730,869 1697,792C1666,716 1639,690 1615,710C1608,716 1591,764 1579,816C1566,868 1553,910 1548,910C1530,910 1530,842 1550,786C1561,753 1570,713 1570,696C1571,675 1578,659 1596,647C1620,629 1622,629 1640,645C1659,662 1660,662 1666,645C1670,635 1663,606 1650,576C1638,548 1623,506 1617,483C1611,459 1597,431 1585,420L1564,400L1517,457C1491,489 1470,525 1470,538C1470,550 1463,563 1455,566C1430,576 1438,591 1465,584C1495,576 1497,586 1469,616C1449,637 1449,639 1465,663C1481,689 1481,689 1450,688C1433,687 1417,683 1414,678C1411,674 1400,670 1389,670C1375,670 1364,657 1350,624C1326,569 1326,569 1345,576C1366,584 1364,567 1339,525C1322,496 1319,484 1328,466C1334,452 1335,438 1329,429C1324,421 1320,405 1320,392C1320,373 1315,370 1288,371C1270,372 1247,369 1238,366C1224,360 1221,366 1216,402C1205,491 1203,550 1211,550C1226,550 1221,608 1205,624C1197,632 1190,643 1190,648C1190,653 1181,665 1170,675C1153,690 1146,691 1125,682C1111,676 1100,666 1100,660C1100,642 1082,650 1077,671C1073,686 1075,690 1086,686C1108,678 1100,720 1078,734C1065,742 1056,740 1040,725C1029,715 1021,701 1024,695C1026,689 1022,676 1014,666C1007,655 1003,643 1006,638C1010,633 998,611 981,590C964,569 950,549 950,546C950,532 994,542 1021,561C1054,584 1060,573 1030,545C1015,532 1010,514 1010,479C1010,453 1006,429 1001,426C996,422 977,432 960,447C928,474 928,475 933,541C939,616 934,650 915,650C905,650 905,659 916,697C924,722 930,746 930,750C930,754 911,770 888,787C864,804 835,828 822,840C800,861 797,861 753,846C710,831 706,831 682,851C668,862 639,900 618,935C596,971 565,1008 546,1019C483,1058 484,1096 550,1160C599,1208 601,1209 609,1187C614,1174 625,1158 634,1151C659,1130 653,1120 615,1120C596,1120 580,1116 580,1110C580,1105 593,1100 608,1100C623,1100 640,1096 645,1091C651,1086 669,1080 685,1077C704,1075 696,1072 663,1071C603,1070 590,1050 648,1050C669,1050 691,1045 697,1039C715,1021 960,1021 969,1039C975,1048 979,1049 984,1041C988,1035 1011,1030 1036,1030C1063,1030 1079,1034 1075,1040C1072,1045 1082,1052 1097,1055C1112,1059 1134,1065 1145,1070C1162,1077 1162,1079 1148,1079C1138,1080 1130,1085 1130,1090C1130,1096 1155,1100 1186,1100C1220,1100 1239,1104 1235,1110C1232,1116 1213,1120 1194,1120C1161,1120 1149,1132 1170,1145C1176,1149 1190,1170 1201,1193C1213,1216 1255,1265 1294,1302C1372,1377 1372,1388 1293,1335C1264,1316 1230,1300 1218,1300C1205,1300 1190,1292 1183,1281C1170,1260 1110,1235 1110,1251C1110,1256 1116,1260 1123,1260C1156,1260 1170,1286 1182,1368C1193,1448 1193,1451 1170,1475C1157,1489 1136,1500 1123,1500C1109,1500 1100,1506 1100,1515C1100,1524 1106,1527 1115,1524C1131,1517 1134,1544 1121,1590C1113,1617 1107,1613 1247,1696C1284,1719 1344,1752 1380,1770C1416,1787 1452,1805 1460,1810C1469,1814 1490,1821 1508,1824C1525,1828 1542,1836 1546,1841C1555,1856 1655,1898 1698,1906C1718,1910 1746,1919 1760,1926C1796,1945 1874,1944 1891,1924ZM869,1434C851,1371 804,1310 772,1310C760,1310 761,1315 775,1337C793,1363 792,1364 764,1388C741,1407 739,1410 756,1406C770,1402 785,1407 801,1422C828,1447 874,1479 877,1476C878,1475 875,1456 869,1434ZM860,1062C860,1058 849,1053 835,1052C821,1051 810,1055 810,1060C810,1066 821,1070 835,1070C849,1070 860,1066 860,1062Z" style="fill:rgb(37,99,235);fill-rule:nonzero;stroke:white;stroke-width:10px;"/>
        <path d="M1615,1726C1604,1718 1591,1714 1584,1717C1578,1719 1565,1709 1555,1694C1538,1668 1538,1667 1556,1675C1567,1679 1586,1684 1599,1685C1612,1687 1627,1693 1633,1699C1639,1705 1652,1710 1662,1710C1684,1710 1686,1726 1664,1734C1642,1743 1636,1742 1615,1726Z" style="fill:rgb(37,99,235);fill-rule:nonzero;stroke:white;stroke-width:10px;"/>
        <path d="M1777,1540C1735,1496 1689,1455 1675,1450C1661,1445 1650,1433 1650,1422C1650,1412 1639,1398 1625,1392C1611,1385 1596,1371 1592,1360C1588,1349 1553,1316 1515,1287C1432,1224 1425,1210 1475,1210C1496,1210 1509,1206 1505,1200C1499,1190 1504,1189 1573,1184C1649,1180 1621,1170 1532,1170C1477,1170 1440,1166 1440,1160C1440,1155 1447,1150 1455,1150C1463,1150 1469,1145 1468,1138C1466,1132 1480,1124 1497,1120C1515,1116 1536,1107 1544,1101C1560,1087 1799,1075 1833,1086C1853,1093 1852,1094 1820,1102C1782,1111 1737,1117 1615,1129C1536,1137 1536,1137 1590,1140C1683,1145 1705,1145 1715,1139C1749,1118 1940,1120 1940,1141C1940,1146 1910,1151 1873,1152L1805,1154L1863,1157C1894,1159 1920,1165 1920,1170C1920,1181 1916,1182 1840,1182L1785,1181L1825,1191C1847,1197 1876,1201 1890,1201C1904,1201 1926,1206 1938,1213C1962,1224 1962,1224 1928,1236C1895,1247 1895,1247 1889,1327C1886,1371 1880,1412 1877,1417C1874,1422 1870,1470 1869,1523C1868,1577 1864,1620 1860,1620C1856,1620 1819,1584 1777,1540ZM1820,1405C1820,1402 1803,1389 1782,1376C1753,1358 1741,1341 1729,1304C1718,1270 1709,1257 1699,1260C1691,1263 1659,1265 1628,1265C1572,1265 1571,1265 1589,1284C1602,1296 1624,1303 1651,1304C1691,1305 1695,1308 1703,1337C1710,1361 1723,1373 1759,1388C1808,1410 1820,1413 1820,1405Z" style="fill:rgb(37,99,235);fill-rule:nonzero;stroke:white;stroke-width:10px;"/>
        <path d="M1506,1591C1496,1580 1482,1574 1475,1576C1461,1582 1403,1513 1414,1503C1417,1499 1430,1506 1443,1518C1457,1531 1473,1537 1485,1534C1499,1531 1514,1538 1529,1554C1547,1573 1559,1578 1577,1574C1612,1565 1604,1584 1567,1598C1525,1613 1526,1613 1506,1591Z" style="fill:rgb(37,99,235);fill-rule:nonzero;stroke:white;stroke-width:10px;"/>
        <path d="M1320,1155C1313,1146 1299,1142 1289,1145C1274,1150 1267,1142 1254,1110C1245,1088 1230,1064 1221,1057C1212,1051 1192,1024 1177,999L1150,952L1173,945C1193,938 1193,937 1165,933C1113,925 1112,910 1163,910C1209,910 1225,898 1194,886C1185,883 1167,880 1154,880C1141,880 1130,876 1130,871C1130,861 1230,852 1390,848C1473,846 1485,847 1488,863C1490,874 1485,880 1472,880C1442,880 1438,892 1460,915L1481,937L1442,1034C1411,1112 1398,1135 1372,1150C1333,1174 1336,1174 1320,1155ZM1355,954C1336,939 1336,933 1358,928C1367,925 1383,908 1394,890L1412,858L1349,865C1314,869 1283,874 1281,876C1270,886 1296,956 1323,986L1354,1022L1362,994C1368,973 1366,962 1355,954ZM1473,863C1466,861 1452,861 1443,863C1433,866 1439,868 1455,868C1472,868 1479,866 1473,863Z" style="fill:rgb(37,99,235);fill-rule:nonzero;stroke:white;stroke-width:10px;"/>
        <path d="M1040,940C1029,933 1040,930 1078,930C1106,930 1130,935 1130,940C1130,953 1060,953 1040,940Z" style="fill:rgb(37,99,235);fill-rule:nonzero;stroke:white;stroke-width:10px;"/>
        <path d="M1080,820C1080,815 1100,810 1125,810C1150,810 1170,815 1170,820C1170,826 1150,830 1125,830C1100,830 1080,826 1080,820Z" style="fill:rgb(37,99,235);fill-rule:nonzero;stroke:white;stroke-width:10px;"/>
    </g>
</svg>
