<?xml version="1.0" encoding="UTF-8" standalone="no"?><!DOCTYPE svg PUBLIC "-//W3C//DTD SVG 1.1//EN" "http://www.w3.org/Graphics/SVG/1.1/DTD/svg11.dtd"><svg width="100%" height="100%" viewBox="0 0 488 174" version="1.1" xmlns="http://www.w3.org/2000/svg" xmlns:xlink="http://www.w3.org/1999/xlink" xml:space="preserve" xmlns:serif="http://www.serif.com/" style="fill-rule:evenodd;clip-rule:evenodd;stroke-linejoin:round;stroke-miterlimit:2;"><g id="curvas"><g id="outline"><path d="M194.136,109.256l0,-35.84l23.04,0l-0,-20.464l-23.04,0l0,-4.751c0,-0.129 0.128,-0.257 0.256,-0.257l23.04,0l0,-20.464l-36.608,0c-8.832,0 -13.312,3.581 -13.312,10.36l-0,71.416l26.624,0Zm273.152,0c8.832,0 13.312,-3.327 13.312,-10.11l0,-71.666l-26.624,0l0,61.172c0,0.128 -0.128,0.256 -0.256,0.256l-6.016,0c-0.128,0 -0.256,-0.128 -0.256,-0.256l0,-61.172l-26.624,0l0,71.666c0,6.783 4.48,10.11 13.312,10.11l33.152,0Zm-198.272,0c8.832,0 13.312,-3.327 13.312,-10.11l0,-71.666l-26.624,0l0,61.172c0,0.128 -0.128,0.256 -0.256,0.256l-6.016,0c-0.128,0 -0.256,-0.128 -0.256,-0.256l0,-61.172l-26.624,0l-0,71.666c-0,6.783 4.48,10.11 13.312,10.11l33.152,0Zm79.36,0l0,-102.256l-26.624,-0l-0,20.48l-19.84,0c-8.832,0 -13.312,3.456 -13.312,10.366l0,61.3c0,6.783 4.096,10.11 13.312,10.11l46.464,0Zm-294.912,0c8.832,0 13.312,-3.326 13.312,-10.106l-0,-30.846c-0,-6.779 -4.48,-10.104 -13.312,-10.104l-19.584,0c-0.128,0 -0.256,-0.128 -0.256,-0.257l-0,-9.74c-0,-0.128 0.128,-0.256 0.256,-0.256l6.016,0c0.128,0 0.256,0.128 0.256,0.256l-0,4.733l26.624,0l-0,-15.095c-0,-6.907 -4.48,-10.361 -13.312,-10.361l-33.152,0c-8.832,0 -13.312,3.454 -13.312,10.361l0,30.463c0,6.907 4.48,10.36 13.312,10.36l19.584,0c0.128,0 0.256,0.128 0.256,0.257l-0,9.74c-0,0.128 -0.128,0.256 -0.256,0.256l-6.016,-0c-0.128,-0 -0.256,-0.128 -0.256,-0.256l-0,-4.861l-26.624,0l0,15.35c0,6.78 4.48,10.106 13.312,10.106l33.152,0Zm65.92,0c8.832,0 13.312,-3.326 13.312,-10.106l0,-15.35l-26.624,0l-0,4.861c-0,0.128 -0.128,0.256 -0.256,0.256l-6.016,-0c-0.128,-0 -0.256,-0.128 -0.256,-0.256l-0,-9.981l33.152,0l0,-40.832c0,-6.912 -4.48,-10.368 -13.312,-10.368l-33.152,-0c-8.832,-0 -13.312,3.456 -13.312,10.368l0,61.302c0,6.78 4.48,10.106 13.312,10.106l33.152,0Zm281.856,0c8.832,0 13.312,-3.326 13.312,-10.106l0,-15.35l-26.624,0l0,4.861c0,0.128 -0.128,0.256 -0.256,0.256l-6.016,-0c-0.128,-0 -0.256,-0.128 -0.256,-0.256l0,-9.981l33.152,0l0,-40.832c0,-6.912 -4.48,-10.368 -13.312,-10.368l-33.152,-0c-8.832,-0 -13.312,3.456 -13.312,10.368l0,61.302c0,6.78 4.48,10.106 13.312,10.106l33.152,0Zm-79.488,-20.348l-6.272,0c-0.128,0 -0.256,-0.128 -0.256,-0.256l0,-40.44c0,-0.128 0.128,-0.256 0.256,-0.256l6.272,0l-0,40.952Zm-215.68,-29.3l-6.528,0l-0,-11.392c-0,-0.128 0.128,-0.256 0.256,-0.256l6.016,0c0.128,0 0.256,0.128 0.256,0.256l-0,11.392Zm281.856,0l-6.528,0l0,-11.392c0,-0.128 0.128,-0.256 0.256,-0.256l6.016,0c0.128,0 0.256,0.128 0.256,0.256l0,11.392Z" style="fill-rule:nonzero;"/><path d="M288.405,24.007c-1.205,-2.108 -3.475,-3.527 -6.077,-3.527l-26.624,0c-1.179,0 -2.29,0.292 -3.264,0.808c-0.974,-0.516 -2.085,-0.808 -3.264,-0.808l-26.624,0c-0.904,0 -1.768,0.171 -2.56,0.485c-0.792,-0.314 -1.656,-0.485 -2.56,-0.485l-36.608,0c-7.919,0 -13.291,2.501 -16.486,6.23c-2.425,2.832 -3.826,6.515 -3.826,11.13l-0,71.416c0,3.866 3.134,7 7,7l26.624,0c3.866,0 7,-3.134 7,-7l0,-28.84l14.416,0l-0,18.73c-0,4.678 1.436,8.335 3.893,11.12c3.183,3.607 8.532,5.99 16.419,5.99c-0,0 33.152,0 33.152,0c7.866,0 13.207,-2.37 16.393,-5.961c3.094,3.552 8.34,5.961 16.503,5.961c-0,0 46.464,0 46.464,0c2.606,0 4.88,-1.424 6.083,-3.538c3.217,2.195 7.707,3.538 13.629,3.538l33.152,0c7.887,0 13.236,-2.382 16.418,-5.987l0.031,-0.037l0.028,0.034c3.183,3.607 8.532,5.99 16.419,5.99c-0,0 33.152,0 33.152,0c7.887,0 13.236,-2.383 16.419,-5.99c2.457,-2.785 3.893,-6.442 3.893,-11.12l0,-71.666c0,-3.866 -3.134,-7 -7,-7l-26.624,0c-1.179,0 -2.29,0.292 -3.264,0.808c-0.974,-0.516 -2.085,-0.808 -3.264,-0.808l-26.624,0c-2.602,0 -4.872,1.419 -6.077,3.528c-3.216,-2.194 -7.668,-3.528 -13.507,-3.528l-33.152,0c-5.373,0 -9.571,1.129 -12.712,3.018l0,-16.498c0,-3.866 -3.134,-7 -7,-7l-26.624,-0c-3.866,0 -7,3.134 -7,7l0,13.48c0,-0 -12.84,0 -12.84,0c-5.84,0 -10.292,1.334 -13.507,3.527Zm-218.556,2.535c-3.204,-3.657 -8.543,-6.062 -16.385,-6.062l-33.152,0c-7.917,0 -13.283,2.451 -16.478,6.166c-2.42,2.816 -3.834,6.504 -3.834,11.195c0,0 0,30.463 0,30.463c0,3.994 1.025,7.26 2.825,9.877c-1.714,1.276 -2.825,3.318 -2.825,5.619l0,15.35c0,4.677 1.436,8.334 3.894,11.119c3.182,3.605 8.531,5.987 16.418,5.987l33.152,0c7.859,0 13.198,-2.365 16.384,-5.95c3.186,3.585 8.525,5.95 16.384,5.95l33.152,0c7.887,0 13.236,-2.382 16.418,-5.987c2.458,-2.785 3.894,-6.442 3.894,-11.119c0,0 0,-15.35 0,-15.35c0,-0.904 -0.171,-1.768 -0.485,-2.56c0.314,-0.792 0.485,-1.656 0.485,-2.56l0,-40.832c0,-4.693 -1.414,-8.382 -3.833,-11.198c-3.195,-3.717 -8.561,-6.17 -16.479,-6.17l-33.152,0c-7.84,0 -13.179,2.405 -16.383,6.062Zm199.167,82.714c8.832,0 13.312,-3.327 13.312,-10.11l0,-71.666l-26.624,0l0,61.172c0,0.128 -0.128,0.256 -0.256,0.256l-6.016,0c-0.128,0 -0.256,-0.128 -0.256,-0.256l0,-61.172l-26.624,0l-0,71.666c-0,6.783 4.48,10.11 13.312,10.11l33.152,0Zm198.272,0c8.832,0 13.312,-3.327 13.312,-10.11l0,-71.666l-26.624,0l0,61.172c0,0.128 -0.128,0.256 -0.256,0.256l-6.016,0c-0.128,0 -0.256,-0.128 -0.256,-0.256l0,-61.172l-26.624,0l0,71.666c0,6.783 4.48,10.11 13.312,10.11l33.152,0Zm-273.152,0l0,-35.84l23.04,0l-0,-20.464l-23.04,0l0,-4.751c0,-0.129 0.128,-0.257 0.256,-0.257l23.04,0l0,-20.464l-36.608,0c-8.832,0 -13.312,3.581 -13.312,10.36l-0,71.416l26.624,0Zm154.24,0l0,-102.256l-26.624,0l0,20.48l-19.84,0c-8.832,0 -13.312,3.456 -13.312,10.366l0,61.3c0,6.783 4.096,10.11 13.312,10.11l46.464,0Zm-228.992,0c8.832,0 13.312,-3.326 13.312,-10.106l0,-15.35l-26.624,0l-0,4.861c-0,0.128 -0.128,0.256 -0.256,0.256l-6.016,-0c-0.128,-0 -0.256,-0.128 -0.256,-0.256l-0,-9.981l33.152,0l0,-40.832c0,-6.912 -4.48,-10.368 -13.312,-10.368l-33.152,0c-8.832,0 -13.312,3.456 -13.312,10.368l0,61.302c0,6.78 4.48,10.106 13.312,10.106l33.152,0Zm-65.92,0c8.832,0 13.312,-3.326 13.312,-10.106l-0,-30.846c-0,-6.779 -4.48,-10.104 -13.312,-10.104l-19.584,0c-0.128,0 -0.256,-0.128 -0.256,-0.257l-0,-9.74c-0,-0.128 0.128,-0.256 0.256,-0.256l6.016,0c0.128,0 0.256,0.128 0.256,0.256l-0,4.733l26.624,0l-0,-15.095c-0,-6.907 -4.48,-10.361 -13.312,-10.361l-33.152,0c-8.832,0 -13.312,3.454 -13.312,10.361l0,30.463c0,6.907 4.48,10.36 13.312,10.36l19.584,0c0.128,0 0.256,0.128 0.256,0.257l-0,9.74c-0,0.128 -0.128,0.256 -0.256,0.256l-6.016,-0c-0.128,-0 -0.256,-0.128 -0.256,-0.256l-0,-4.861l-26.624,0l0,15.35c0,6.78 4.48,10.106 13.312,10.106l33.152,0Zm347.776,0c8.832,0 13.312,-3.326 13.312,-10.106l0,-15.35l-26.624,0l0,4.861c0,0.128 -0.128,0.256 -0.256,0.256l-6.016,-0c-0.128,-0 -0.256,-0.128 -0.256,-0.256l0,-9.981l33.152,0l0,-40.832c0,-6.912 -4.48,-10.368 -13.312,-10.368l-33.152,0c-8.832,0 -13.312,3.456 -13.312,10.368l0,61.302c0,6.78 4.48,10.106 13.312,10.106l33.152,0Zm-79.488,-20.348l-6.272,0c-0.128,0 -0.256,-0.128 -0.256,-0.256l0,-40.44c0,-0.128 0.128,-0.256 0.256,-0.256l6.272,0l-0,40.952Zm-215.68,-29.3l-6.528,0l-0,-11.392c-0,-0.128 0.128,-0.256 0.256,-0.256l6.016,0c0.128,0 0.256,0.128 0.256,0.256l-0,11.392Zm281.856,0l-6.528,0l0,-11.392c0,-0.128 0.128,-0.256 0.256,-0.256l6.016,0c0.128,0 0.256,0.128 0.256,0.256l0,11.392Z" style="fill:#fff;"/><path d="M68.879,166.616l-9.217,-20.471l8.846,-19.048l-13.547,0l-3.835,10.081l0,-10.081l-12.433,0l-0,39.519l12.433,0l0,-10.575l4.206,10.575l13.547,0Zm-31.671,0l-9.216,-20.471l8.845,-19.048l-13.547,0l-3.835,10.081l0,-10.081l-12.433,0l0,39.519l12.433,0l0,-10.575l4.207,10.575l13.546,0Zm411.721,0l-9.217,-20.471l8.846,-19.048l-13.547,0l-3.835,10.081l0,-10.081l-12.433,0l-0,39.519l12.433,0l0,-10.575l4.206,10.575l13.547,0Zm-316.708,0l-9.217,-20.471l8.846,-19.048l-13.547,0l-3.835,10.081l-0,-10.081l-12.433,0l-0,39.519l12.433,0l-0,-10.575l4.206,10.575l13.547,0Zm-31.671,0l-9.217,-20.471l8.846,-19.048l-13.547,0l-3.835,10.081l-0,-10.081l-12.433,0l-0,39.519l12.433,0l-0,-10.575l4.206,10.575l13.547,0Zm380.05,0l-9.217,-20.471l8.846,-19.048l-13.547,0l-3.835,10.081l0,-10.081l-12.433,0l-0,39.519l12.433,0l0,-10.575l4.206,10.575l13.547,0Zm-126.683,0l-9.217,-20.471l8.846,-19.048l-13.547,0l-3.835,10.081l-0,-10.081l-12.434,0l0,39.519l12.434,0l-0,-10.575l4.206,10.575l13.547,0Zm-190.025,0l-9.217,-20.471l8.845,-19.048l-13.546,0l-3.835,10.081l-0,-10.081l-12.434,0l0,39.519l12.434,0l-0,-10.575l4.206,10.575l13.547,0Zm95.012,0l-9.217,-20.471l8.846,-19.048l-13.547,0l-3.835,10.081l0,-10.081l-12.433,0l-0,39.519l12.433,0l0,-10.575l4.206,10.575l13.547,0Zm-63.342,0l-9.216,-20.471l8.845,-19.048l-13.546,0l-3.836,10.081l0,-10.081l-12.433,0l0,39.519l12.433,0l0,-10.575l4.207,10.575l13.546,0Zm31.671,0l-9.216,-20.471l8.845,-19.048l-13.547,0l-3.835,10.081l0,-10.081l-12.433,0l0,39.519l12.433,0l0,-10.575l4.207,10.575l13.546,0Zm63.342,0l-9.217,-20.471l8.846,-19.048l-13.547,0l-3.835,10.081l-0,-10.081l-12.433,0l-0,39.519l12.433,0l-0,-10.575l4.206,10.575l13.547,0Zm31.671,0l-9.217,-20.471l8.846,-19.048l-13.547,0l-3.835,10.081l-0,-10.081l-12.433,0l-0,39.519l12.433,0l-0,-10.575l4.206,10.575l13.547,0Zm63.341,0l-9.216,-20.471l8.845,-19.048l-13.546,0l-3.835,10.081l-0,-10.081l-12.434,0l0,39.519l12.434,0l-0,-10.575l4.206,10.575l13.546,0Zm31.671,0l-9.216,-20.471l8.845,-19.048l-13.547,0l-3.835,10.081l0,-10.081l-12.433,0l0,39.519l12.433,0l0,-10.575l4.207,10.575l13.546,0Z" style="fill-rule:nonzero;"/><path d="M21.561,173.293c0.668,0.211 1.375,0.323 2.101,0.323l13.546,0c0.245,0 0.489,-0.013 0.73,-0.041c0.248,0.027 0.5,0.041 0.755,0.041l12.433,0c0.734,0 1.442,-0.113 2.106,-0.323c0.668,0.211 1.375,0.323 2.1,0.323l13.547,0c0.245,0 0.489,-0.013 0.729,-0.041c0.249,0.027 0.501,0.041 0.756,0.041l12.433,0c0.734,0 1.442,-0.113 2.106,-0.323c0.668,0.211 1.375,0.323 2.1,0.323l13.547,0c0.245,0 0.489,-0.013 0.729,-0.041c0.248,0.027 0.5,0.041 0.756,0.041l12.433,0c0.734,0 1.442,-0.113 2.106,-0.323c0.668,0.211 1.375,0.323 2.1,0.323l13.547,0c0.245,0 0.488,-0.013 0.729,-0.041c0.248,0.027 0.5,0.041 0.755,0.041l12.434,0c0.734,0 1.442,-0.113 2.106,-0.323c0.668,0.211 1.375,0.323 2.1,0.323l13.547,0c0.245,0 0.488,-0.013 0.729,-0.041c0.248,0.027 0.5,0.041 0.755,0.041l12.433,0c0.735,0 1.442,-0.113 2.107,-0.323c0.667,0.211 1.374,0.323 2.1,0.323l13.546,0c0.246,0 0.489,-0.013 0.73,-0.041c0.248,0.027 0.5,0.041 0.755,0.041l12.433,0c0.734,0 1.442,-0.113 2.106,-0.323c0.668,0.211 1.375,0.323 2.101,0.323l13.546,0c0.245,0 0.489,-0.013 0.73,-0.041c0.248,0.027 0.5,0.041 0.755,0.041l12.433,0c0.734,0 1.442,-0.113 2.106,-0.323c0.668,0.211 1.375,0.323 2.1,0.323l13.547,0c0.245,0 0.489,-0.013 0.729,-0.041c0.249,0.027 0.501,0.041 0.756,0.041l12.433,0c0.734,0 1.442,-0.113 2.106,-0.323c0.668,0.211 1.375,0.323 2.1,0.323l13.547,0c0.245,0 0.489,-0.013 0.729,-0.041c0.248,0.027 0.5,0.041 0.756,0.041l12.433,0c0.734,0 1.442,-0.113 2.106,-0.323c0.668,0.211 1.375,0.323 2.1,0.323l13.547,0c0.245,0 0.488,-0.013 0.729,-0.041c0.248,0.027 0.5,0.041 0.755,0.041l12.434,0c0.734,0 1.442,-0.113 2.106,-0.323c0.668,0.211 1.375,0.323 2.1,0.323l13.547,0c0.245,0 0.488,-0.013 0.729,-0.041c0.248,0.027 0.5,0.041 0.755,0.041l12.434,0c0.734,0 1.441,-0.113 2.106,-0.323c0.667,0.211 1.374,0.323 2.1,0.323l13.546,0c0.246,0 0.489,-0.013 0.73,-0.041c0.248,0.027 0.5,0.041 0.755,0.041l12.433,0c0.734,0 1.442,-0.113 2.106,-0.323c0.668,0.211 1.375,0.323 2.101,0.323l13.546,0c0.245,0 0.489,-0.013 0.73,-0.041c0.248,0.027 0.5,0.041 0.755,0.041l12.433,0c0.734,0 1.442,-0.113 2.106,-0.323c0.668,0.211 1.375,0.323 2.1,0.323l13.547,0c0.245,0 0.489,-0.013 0.729,-0.041c0.249,0.027 0.501,0.041 0.756,0.041l12.433,0c0.734,0 1.442,-0.113 2.106,-0.323c0.668,0.211 1.375,0.323 2.1,0.323l13.547,0c2.376,0 4.589,-1.205 5.879,-3.2c1.289,-1.995 1.479,-4.508 0.504,-6.674l-7.903,-17.552c0,0 7.498,-16.145 7.498,-16.145c1.006,-2.167 0.837,-4.699 -0.448,-6.714c-1.286,-2.014 -3.511,-3.234 -5.901,-3.234l-13.547,0c-0.657,0 -1.3,0.092 -1.91,0.27c-0.612,-0.176 -1.257,-0.27 -1.925,-0.27l-12.433,0c-0.315,0 -0.624,0.021 -0.927,0.063c-0.306,-0.042 -0.616,-0.063 -0.929,-0.063l-13.547,0c-0.657,0 -1.299,0.092 -1.91,0.27c-0.611,-0.176 -1.257,-0.27 -1.925,-0.27l-12.433,0c-0.314,0 -0.624,0.021 -0.927,0.063c-0.305,-0.042 -0.616,-0.063 -0.929,-0.063l-13.547,0c-0.657,0 -1.299,0.092 -1.91,0.27c-0.611,-0.176 -1.257,-0.27 -1.925,-0.27l-12.433,0c-0.314,0 -0.624,0.021 -0.927,0.063c-0.305,-0.042 -0.616,-0.063 -0.929,-0.063l-13.546,0c-0.658,0 -1.3,0.092 -1.911,0.27c-0.611,-0.176 -1.257,-0.27 -1.924,-0.27l-12.434,0c-0.314,0 -0.624,0.021 -0.927,0.063c-0.305,-0.042 -0.615,-0.063 -0.928,-0.063l-13.547,0c-0.658,0 -1.3,0.092 -1.911,0.27c-0.611,-0.176 -1.257,-0.27 -1.924,-0.27l-12.434,0c-0.314,0 -0.623,0.021 -0.927,0.063c-0.305,-0.042 -0.615,-0.063 -0.928,-0.063l-13.547,0c-0.658,0 -1.3,0.092 -1.91,0.27c-0.612,-0.176 -1.258,-0.27 -1.925,-0.27l-12.433,0c-0.315,0 -0.624,0.021 -0.927,0.063c-0.306,-0.042 -0.616,-0.063 -0.929,-0.063l-13.547,0c-0.657,0 -1.3,0.092 -1.91,0.27c-0.612,-0.176 -1.257,-0.27 -1.925,-0.27l-12.433,0c-0.315,0 -0.624,0.021 -0.927,0.063c-0.306,-0.042 -0.616,-0.063 -0.929,-0.063l-13.547,0c-0.657,0 -1.299,0.092 -1.91,0.27c-0.611,-0.176 -1.257,-0.27 -1.925,-0.27l-12.433,0c-0.314,0 -0.624,0.021 -0.927,0.063c-0.305,-0.042 -0.616,-0.063 -0.929,-0.063l-13.547,0c-0.657,0 -1.299,0.092 -1.91,0.27c-0.611,-0.176 -1.257,-0.27 -1.925,-0.27l-12.433,0c-0.314,0 -0.624,0.021 -0.927,0.063c-0.305,-0.042 -0.616,-0.063 -0.929,-0.063l-13.546,0c-0.658,0 -1.3,0.092 -1.911,0.27c-0.611,-0.176 -1.257,-0.27 -1.925,-0.27l-12.433,0c-0.314,0 -0.624,0.021 -0.927,0.063c-0.305,-0.042 -0.615,-0.063 -0.929,-0.063l-13.546,0c-0.658,0 -1.3,0.092 -1.911,0.27c-0.611,-0.176 -1.257,-0.27 -1.924,-0.27l-12.434,0c-0.314,0 -0.623,0.021 -0.927,0.063c-0.305,-0.042 -0.615,-0.063 -0.928,-0.063l-13.547,0c-0.658,0 -1.3,0.092 -1.91,0.27c-0.612,-0.176 -1.258,-0.27 -1.925,-0.27l-12.433,0c-0.315,0 -0.624,0.021 -0.927,0.063c-0.306,-0.042 -0.616,-0.063 -0.929,-0.063l-13.547,0c-0.657,0 -1.3,0.092 -1.91,0.27c-0.612,-0.176 -1.257,-0.27 -1.925,-0.27l-12.433,0c-0.315,0 -0.624,0.021 -0.927,0.063c-0.306,-0.042 -0.616,-0.063 -0.929,-0.063l-13.547,0c-0.657,0 -1.299,0.092 -1.91,0.27c-0.611,-0.176 -1.257,-0.27 -1.925,-0.27l-12.433,0c-0.314,0 -0.624,0.021 -0.927,0.063c-0.305,-0.042 -0.616,-0.063 -0.929,-0.063l-13.547,0c-0.657,0 -1.299,0.092 -1.91,0.27c-0.611,-0.176 -1.257,-0.27 -1.925,-0.27l-12.433,0c-3.866,0 -7,3.134 -7,7l0,39.519c0,3.866 3.134,7 7,7l12.433,0c0.734,0 1.442,-0.113 2.106,-0.323Zm142.331,-6.677l-9.217,-20.471l8.845,-19.048l-13.546,0l-3.835,10.081l-0,-10.081l-12.434,0l0,39.519l12.434,0l-0,-10.575l4.206,10.575l13.547,0Zm95.012,0l-9.217,-20.471l8.846,-19.048l-13.547,0l-3.835,10.081l0,-10.081l-12.433,0l-0,39.519l12.433,0l0,-10.575l4.206,10.575l13.547,0Zm-63.342,0l-9.216,-20.471l8.845,-19.048l-13.546,0l-3.836,10.081l0,-10.081l-12.433,0l0,39.519l12.433,0l0,-10.575l4.207,10.575l13.546,0Zm31.671,0l-9.216,-20.471l8.845,-19.048l-13.547,0l-3.835,10.081l0,-10.081l-12.433,0l0,39.519l12.433,0l0,-10.575l4.207,10.575l13.546,0Zm63.342,0l-9.217,-20.471l8.846,-19.048l-13.547,0l-3.835,10.081l-0,-10.081l-12.433,0l-0,39.519l12.433,0l-0,-10.575l4.206,10.575l13.547,0Zm31.671,0l-9.217,-20.471l8.846,-19.048l-13.547,0l-3.835,10.081l-0,-10.081l-12.433,0l-0,39.519l12.433,0l-0,-10.575l4.206,10.575l13.547,0Zm63.341,0l-9.216,-20.471l8.845,-19.048l-13.546,0l-3.835,10.081l-0,-10.081l-12.434,0l0,39.519l12.434,0l-0,-10.575l4.206,10.575l13.546,0Zm31.671,0l-9.216,-20.471l8.845,-19.048l-13.547,0l-3.835,10.081l0,-10.081l-12.433,0l0,39.519l12.433,0l0,-10.575l4.207,10.575l13.546,0Zm-348.379,0l-9.217,-20.471l8.846,-19.048l-13.547,0l-3.835,10.081l0,-10.081l-12.433,0l-0,39.519l12.433,0l0,-10.575l4.206,10.575l13.547,0Zm-31.671,0l-9.216,-20.471l8.845,-19.048l-13.547,0l-3.835,10.081l0,-10.081l-12.433,0l0,39.519l12.433,0l0,-10.575l4.207,10.575l13.546,0Zm411.721,0l-9.217,-20.471l8.846,-19.048l-13.547,0l-3.835,10.081l0,-10.081l-12.433,0l-0,39.519l12.433,0l0,-10.575l4.206,10.575l13.547,0Zm-316.708,0l-9.217,-20.471l8.846,-19.048l-13.547,0l-3.835,10.081l-0,-10.081l-12.433,0l-0,39.519l12.433,0l-0,-10.575l4.206,10.575l13.547,0Zm-31.671,0l-9.217,-20.471l8.846,-19.048l-13.547,0l-3.835,10.081l-0,-10.081l-12.433,0l-0,39.519l12.433,0l-0,-10.575l4.206,10.575l13.547,0Zm380.05,0l-9.217,-20.471l8.846,-19.048l-13.547,0l-3.835,10.081l0,-10.081l-12.433,0l-0,39.519l12.433,0l0,-10.575l4.206,10.575l13.547,0Zm-126.683,0l-9.217,-20.471l8.846,-19.048l-13.547,0l-3.835,10.081l-0,-10.081l-12.434,0l0,39.519l12.434,0l-0,-10.575l4.206,10.575l13.547,0Z" style="fill:#fff;"/></g><g><path d="M53.464,109.256c8.832,0 13.312,-3.326 13.312,-10.106l-0,-30.846c-0,-6.779 -4.48,-10.104 -13.312,-10.104l-19.584,0c-0.128,0 -0.256,-0.128 -0.256,-0.257l-0,-9.74c-0,-0.128 0.128,-0.256 0.256,-0.256l6.016,0c0.128,0 0.256,0.128 0.256,0.256l-0,4.733l26.624,0l-0,-15.095c-0,-6.907 -4.48,-10.361 -13.312,-10.361l-33.152,0c-8.832,0 -13.312,3.454 -13.312,10.361l0,30.463c0,6.907 4.48,10.36 13.312,10.36l19.584,0c0.128,0 0.256,0.128 0.256,0.257l-0,9.74c-0,0.128 -0.128,0.256 -0.256,0.256l-6.016,-0c-0.128,-0 -0.256,-0.128 -0.256,-0.256l-0,-4.861l-26.624,0l0,15.35c0,6.78 4.48,10.106 13.312,10.106l33.152,0Z" style="fill:#f00;fill-rule:nonzero;"/><path d="M8.701,79.8l-1.701,0c-2.209,0 -4,1.791 -4,4l0,15.35c0,3.835 1.128,6.85 3.143,9.133c2.735,3.098 7.392,4.973 14.169,4.973l33.152,0c6.777,0 11.434,-1.875 14.169,-4.973c2.015,-2.283 3.143,-5.298 3.143,-9.133c0,0 0,-30.846 0,-30.846c0,-3.834 -1.128,-6.849 -3.144,-9.132c-0.741,-0.84 -1.624,-1.59 -2.653,-2.236l1.797,0c2.209,0 4,-1.791 4,-4l0,-15.095c0,-3.865 -1.115,-6.92 -3.109,-9.239c-2.741,-3.188 -7.409,-5.122 -14.203,-5.122l-33.152,0c-6.794,0 -11.462,1.934 -14.203,5.122c-1.994,2.319 -3.109,5.374 -3.109,9.239c0,0 0,30.463 0,30.463c0,3.865 1.115,6.92 3.109,9.238c0.727,0.846 1.59,1.603 2.592,2.258Zm44.763,29.456c8.832,0 13.312,-3.326 13.312,-10.106l-0,-30.846c-0,-6.779 -4.48,-10.104 -13.312,-10.104l-19.584,0c-0.128,0 -0.256,-0.128 -0.256,-0.257l-0,-9.74c-0,-0.128 0.128,-0.256 0.256,-0.256l6.016,0c0.128,0 0.256,0.128 0.256,0.256l-0,4.733l26.624,0l-0,-15.095c-0,-6.907 -4.48,-10.361 -13.312,-10.361l-33.152,0c-8.832,0 -13.312,3.454 -13.312,10.361l0,30.463c0,6.907 4.48,10.36 13.312,10.36l19.584,0c0.128,0 0.256,0.128 0.256,0.257l-0,9.74c-0,0.128 -0.128,0.256 -0.256,0.256l-6.016,-0c-0.128,-0 -0.256,-0.128 -0.256,-0.256l-0,-4.861l-26.624,0l0,15.35c0,6.78 4.48,10.106 13.312,10.106l33.152,0Z"/><path d="M106.072,59.608l-6.528,0l-0,-11.392c-0,-0.128 0.128,-0.256 0.256,-0.256l6.016,0c0.128,0 0.256,0.128 0.256,0.256l-0,11.392Zm13.312,49.648c8.832,0 13.312,-3.326 13.312,-10.106l0,-15.35l-26.624,0l-0,4.861c-0,0.128 -0.128,0.256 -0.256,0.256l-6.016,-0c-0.128,-0 -0.256,-0.128 -0.256,-0.256l-0,-9.981l33.152,0l0,-40.832c0,-6.912 -4.48,-10.368 -13.312,-10.368l-33.152,0c-8.832,0 -13.312,3.456 -13.312,10.368l0,61.302c0,6.78 4.48,10.106 13.312,10.106l33.152,0Z" style="fill:#f00;fill-rule:nonzero;"/><path d="M135.769,81.24c0.579,-0.693 0.927,-1.586 0.927,-2.56l0,-40.832c0,-3.866 -1.115,-6.923 -3.108,-9.242c-2.742,-3.191 -7.409,-5.126 -14.204,-5.126l-33.152,0c-6.795,0 -11.462,1.935 -14.204,5.126c-1.993,2.319 -3.108,5.376 -3.108,9.242l0,61.302c0,3.835 1.128,6.85 3.143,9.133c2.735,3.098 7.392,4.973 14.169,4.973l33.152,0c6.777,0 11.434,-1.875 14.169,-4.973c2.015,-2.283 3.143,-5.298 3.143,-9.133c0,0 0,-15.35 0,-15.35c0,-0.974 -0.348,-1.867 -0.927,-2.56Zm-16.385,28.016c8.832,0 13.312,-3.326 13.312,-10.106l0,-15.35l-26.624,0l-0,4.861c-0,0.128 -0.128,0.256 -0.256,0.256l-6.016,-0c-0.128,-0 -0.256,-0.128 -0.256,-0.256l-0,-9.981l33.152,0l0,-40.832c0,-6.912 -4.48,-10.368 -13.312,-10.368l-33.152,0c-8.832,0 -13.312,3.456 -13.312,10.368l0,61.302c0,6.78 4.48,10.106 13.312,10.106l33.152,0Zm-13.312,-49.648l-6.528,0l-0,-11.392c-0,-0.128 0.128,-0.256 0.256,-0.256l6.016,0c0.128,0 0.256,0.128 0.256,0.256l-0,11.392Z"/><path d="M194.136,109.256l0,-35.84l23.04,0l-0,-20.464l-23.04,0l0,-4.751c0,-0.129 0.128,-0.257 0.256,-0.257l23.04,0l0,-20.464l-36.608,0c-8.832,0 -13.312,3.581 -13.312,10.36l-0,71.416l26.624,0Z" style="fill:#f00;fill-rule:nonzero;"/><path d="M220.416,50.607c0.632,-0.707 1.016,-1.64 1.016,-2.663l0,-20.464c0,-2.209 -1.791,-4 -4,-4l-36.608,0c-6.795,0 -11.466,1.982 -14.207,5.182c-1.997,2.331 -3.105,5.379 -3.105,9.178l-0,71.416c0,2.209 1.791,4 4,4l26.624,0c2.209,0 4,-1.791 4,-4l0,-31.84c-0,0 19.04,0 19.04,0c2.209,0 4,-1.791 4,-4l0,-20.464c0,-0.876 -0.282,-1.686 -0.76,-2.345Zm-26.28,58.649l0,-35.84l23.04,0l-0,-20.464l-23.04,0l0,-4.751c0,-0.129 0.128,-0.257 0.256,-0.257l23.04,0l0,-20.464l-36.608,0c-8.832,0 -13.312,3.581 -13.312,10.36l-0,71.416l26.624,0Z"/><path d="M269.016,109.256c8.832,0 13.312,-3.327 13.312,-10.11l-0,-71.666l-26.624,0l0,61.172c0,0.128 -0.128,0.256 -0.256,0.256l-6.016,0c-0.128,0 -0.256,-0.128 -0.256,-0.256l0,-61.172l-26.624,0l-0,71.666c-0,6.783 4.48,10.11 13.312,10.11l33.152,0Z" style="fill:#f00;fill-rule:nonzero;"/><path d="M252.44,25.169c-0.724,-1.022 -1.916,-1.689 -3.264,-1.689l-26.624,0c-2.209,0 -4,1.791 -4,4l-0,71.666c-0,3.836 1.128,6.851 3.143,9.135c2.734,3.099 7.392,4.975 14.169,4.975c-0,0 33.152,0 33.152,0c6.777,0 11.435,-1.876 14.169,-4.975c2.015,-2.284 3.143,-5.299 3.143,-9.135c0,0 0,-71.666 0,-71.666c0,-2.209 -1.791,-4 -4,-4l-26.624,0c-1.348,0 -2.54,0.667 -3.264,1.689Zm16.576,84.087c8.832,0 13.312,-3.327 13.312,-10.11l0,-71.666l-26.624,0l0,61.172c0,0.128 -0.128,0.256 -0.256,0.256l-6.016,0c-0.128,0 -0.256,-0.128 -0.256,-0.256l0,-61.172l-26.624,0l-0,71.666c-0,6.783 4.48,10.11 13.312,10.11l33.152,0Z"/><path d="M348.376,109.256l0,-102.256l-26.624,0l-0,20.48l-19.84,0c-8.832,0 -13.312,3.456 -13.312,10.366l0,61.3c0,6.783 4.096,10.11 13.312,10.11l46.464,0Zm-26.624,-20.348l-6.272,0c-0.128,0 -0.256,-0.128 -0.256,-0.256l0,-40.44c0,-0.128 0.128,-0.256 0.256,-0.256l6.272,0l-0,40.952Z" style="fill:#f00;fill-rule:nonzero;"/><path d="M348.376,113.256c2.209,0 4,-1.791 4,-4l0,-102.256c0,-2.209 -1.791,-4 -4,-4l-26.624,0c-2.209,0 -4,1.791 -4,4l-0,16.48c-0,0 -15.84,0 -15.84,0c-6.794,0 -11.462,1.935 -14.203,5.125c-1.994,2.319 -3.109,5.375 -3.109,9.241l0,61.3c0,3.815 1.051,6.811 2.987,9.083c2.645,3.105 7.239,5.027 14.325,5.027c-0,0 46.464,0 46.464,0Zm0,-4l0,-102.256l-26.624,-0l-0,20.48l-19.84,0c-8.832,0 -13.312,3.456 -13.312,10.366l0,61.3c0,6.783 4.096,10.11 13.312,10.11l46.464,0Zm-26.624,-20.348l-6.272,0c-0.128,0 -0.256,-0.128 -0.256,-0.256l0,-40.44c0,-0.128 0.128,-0.256 0.256,-0.256l6.272,0l-0,40.952Z"/><path d="M387.928,59.608l-6.528,0l0,-11.392c0,-0.128 0.128,-0.256 0.256,-0.256l6.016,0c0.128,0 0.256,0.128 0.256,0.256l0,11.392Zm13.312,49.648c8.832,0 13.312,-3.326 13.312,-10.106l0,-15.35l-26.624,0l0,4.861c0,0.128 -0.128,0.256 -0.256,0.256l-6.016,-0c-0.128,-0 -0.256,-0.128 -0.256,-0.256l0,-9.981l33.152,0l0,-40.832c0,-6.912 -4.48,-10.368 -13.312,-10.368l-33.152,0c-8.832,0 -13.312,3.456 -13.312,10.368l0,61.302c0,6.78 4.48,10.106 13.312,10.106l33.152,0Z" style="fill:#f00;fill-rule:nonzero;"/><path d="M417.625,81.24c0.579,-0.693 0.927,-1.586 0.927,-2.56l0,-40.832c0,-3.866 -1.115,-6.923 -3.108,-9.242c-2.742,-3.191 -7.409,-5.126 -14.204,-5.126l-33.152,0c-6.795,0 -11.462,1.935 -14.204,5.126c-1.993,2.319 -3.108,5.376 -3.108,9.242l0,61.302c0,3.835 1.128,6.85 3.143,9.133c2.735,3.098 7.392,4.973 14.169,4.973l33.152,0c6.777,0 11.434,-1.875 14.169,-4.973c2.015,-2.283 3.143,-5.298 3.143,-9.133l0,-15.35c0,-0.974 -0.348,-1.867 -0.927,-2.56Zm-16.385,28.016c8.832,0 13.312,-3.326 13.312,-10.106l0,-15.35l-26.624,0l0,4.861c0,0.128 -0.128,0.256 -0.256,0.256l-6.016,-0c-0.128,-0 -0.256,-0.128 -0.256,-0.256l0,-9.981l33.152,0l0,-40.832c0,-6.912 -4.48,-10.368 -13.312,-10.368l-33.152,0c-8.832,0 -13.312,3.456 -13.312,10.368l0,61.302c0,6.78 4.48,10.106 13.312,10.106l33.152,0Zm-13.312,-49.648l-6.528,0l0,-11.392c0,-0.128 0.128,-0.256 0.256,-0.256l6.016,0c0.128,0 0.256,0.128 0.256,0.256l0,11.392Z"/><path d="M467.288,109.256c8.832,0 13.312,-3.327 13.312,-10.11l0,-71.666l-26.624,0l0,61.172c0,0.128 -0.128,0.256 -0.256,0.256l-6.016,0c-0.128,0 -0.256,-0.128 -0.256,-0.256l0,-61.172l-26.624,0l0,71.666c0,6.783 4.48,10.11 13.312,10.11l33.152,0Z" style="fill:#f00;fill-rule:nonzero;"/><path d="M450.712,25.169c-0.724,-1.022 -1.916,-1.689 -3.264,-1.689l-26.624,0c-2.209,0 -4,1.791 -4,4l0,71.666c0,3.836 1.128,6.851 3.143,9.135c2.734,3.099 7.392,4.975 14.169,4.975c-0,0 33.152,0 33.152,0c6.777,0 11.435,-1.876 14.169,-4.975c2.015,-2.284 3.143,-5.299 3.143,-9.135l0,-71.666c0,-2.209 -1.791,-4 -4,-4l-26.624,0c-1.348,0 -2.54,0.667 -3.264,1.689Zm16.576,84.087c8.832,0 13.312,-3.327 13.312,-10.11l0,-71.666l-26.624,0l0,61.172c0,0.128 -0.128,0.256 -0.256,0.256l-6.016,0c-0.128,0 -0.256,-0.128 -0.256,-0.256l0,-61.172l-26.624,0l0,71.666c0,6.783 4.48,10.11 13.312,10.11l33.152,0Z"/></g><g><path d="M37.208,166.616l-9.216,-20.471l8.845,-19.048l-13.547,0l-3.835,10.081l0,-10.081l-12.433,0l0,39.519l12.433,0l0,-10.575l4.207,10.575l13.546,0Z" style="fill:#eace4f;fill-rule:nonzero;"/><path d="M21.56,168.754c0.548,0.542 1.298,0.862 2.102,0.862l13.546,0c1.018,0 1.967,-0.516 2.52,-1.371c0.552,-0.855 0.634,-1.932 0.216,-2.861l-8.654,-19.219c0,-0 8.268,-17.804 8.268,-17.804c0.432,-0.929 0.359,-2.014 -0.192,-2.878c-0.551,-0.863 -1.505,-1.386 -2.529,-1.386l-13.547,0c-0.716,0 -1.39,0.255 -1.916,0.694c-0.52,-0.433 -1.189,-0.694 -1.919,-0.694l-12.433,0c-1.657,0 -3,1.343 -3,3l0,39.519c0,1.657 1.343,3 3,3l12.433,0c0.82,0 1.563,-0.329 2.105,-0.862Zm15.648,-2.138l-9.216,-20.471l8.845,-19.048l-13.547,0l-3.835,10.081l0,-10.081l-12.433,0l0,39.519l12.433,0l0,-10.575l4.207,10.575l13.546,0Z"/><path d="M68.879,166.616l-9.217,-20.471l8.846,-19.048l-13.547,0l-3.835,10.081l0,-10.081l-12.433,0l-0,39.519l12.433,0l0,-10.575l4.206,10.575l13.547,0Z" style="fill:#eace4f;fill-rule:nonzero;"/><path d="M53.23,168.754c0.549,0.542 1.299,0.862 2.102,0.862l13.547,0c1.018,0 1.967,-0.516 2.52,-1.371c0.552,-0.855 0.634,-1.932 0.216,-2.861l-8.654,-19.219c0,-0 8.268,-17.804 8.268,-17.804c0.431,-0.929 0.359,-2.014 -0.192,-2.878c-0.551,-0.863 -1.505,-1.386 -2.529,-1.386l-13.547,0c-0.716,0 -1.39,0.255 -1.916,0.694c-0.52,-0.433 -1.189,-0.694 -1.919,-0.694l-12.433,0c-1.657,0 -3,1.343 -3,3l-0,39.519c-0,1.657 1.343,3 3,3l12.433,0c0.82,0 1.563,-0.329 2.104,-0.862Zm15.649,-2.138l-9.217,-20.471l8.846,-19.048l-13.547,0l-3.835,10.081l0,-10.081l-12.433,0l-0,39.519l12.433,0l0,-10.575l4.206,10.575l13.547,0Z"/><path d="M100.55,166.616l-9.217,-20.471l8.846,-19.048l-13.547,0l-3.835,10.081l-0,-10.081l-12.433,0l-0,39.519l12.433,0l-0,-10.575l4.206,10.575l13.547,0Z" style="fill:#eace4f;fill-rule:nonzero;"/><path d="M84.901,168.754c0.549,0.542 1.299,0.862 2.102,0.862l13.547,0c1.018,0 1.967,-0.516 2.519,-1.371c0.553,-0.855 0.634,-1.932 0.216,-2.861l-8.653,-19.219c-0,-0 8.268,-17.804 8.268,-17.804c0.431,-0.929 0.359,-2.014 -0.192,-2.878c-0.551,-0.863 -1.505,-1.386 -2.529,-1.386l-13.547,0c-0.716,0 -1.39,0.255 -1.917,0.694c-0.52,-0.433 -1.188,-0.694 -1.918,-0.694l-12.433,0c-1.657,0 -3,1.343 -3,3l-0,39.519c-0,1.657 1.343,3 3,3l12.433,0c0.82,0 1.563,-0.329 2.104,-0.862Zm15.649,-2.138l-9.217,-20.471l8.846,-19.048l-13.547,0l-3.835,10.081l-0,-10.081l-12.433,0l-0,39.519l12.433,0l-0,-10.575l4.206,10.575l13.547,0Z"/><path d="M132.221,166.616l-9.217,-20.471l8.846,-19.048l-13.547,0l-3.835,10.081l-0,-10.081l-12.433,0l-0,39.519l12.433,0l-0,-10.575l4.206,10.575l13.547,0Z" style="fill:#eace4f;fill-rule:nonzero;"/><path d="M116.572,168.754c0.549,0.542 1.299,0.862 2.102,0.862l13.547,0c1.018,0 1.967,-0.516 2.519,-1.371c0.553,-0.855 0.634,-1.932 0.216,-2.861l-8.653,-19.219c-0,-0 8.268,-17.804 8.268,-17.804c0.431,-0.929 0.359,-2.014 -0.192,-2.878c-0.551,-0.863 -1.505,-1.386 -2.529,-1.386l-13.547,0c-0.717,0 -1.39,0.255 -1.917,0.694c-0.52,-0.433 -1.189,-0.694 -1.918,-0.694l-12.433,0c-1.657,0 -3,1.343 -3,3l-0,39.519c-0,1.657 1.343,3 3,3l12.433,0c0.82,0 1.563,-0.329 2.104,-0.862Zm15.649,-2.138l-9.217,-20.471l8.846,-19.048l-13.547,0l-3.835,10.081l-0,-10.081l-12.433,0l-0,39.519l12.433,0l-0,-10.575l4.206,10.575l13.547,0Z"/><path d="M163.892,166.616l-9.217,-20.471l8.845,-19.048l-13.546,0l-3.835,10.081l-0,-10.081l-12.434,0l0,39.519l12.434,0l-0,-10.575l4.206,10.575l13.547,0Z" style="fill:#eace4f;fill-rule:nonzero;"/><path d="M148.243,168.754c0.548,0.542 1.299,0.862 2.102,0.862l13.547,0c1.018,0 1.966,-0.516 2.519,-1.371c0.553,-0.855 0.634,-1.932 0.216,-2.861l-8.653,-19.219c-0,-0 8.267,-17.804 8.267,-17.804c0.432,-0.929 0.359,-2.014 -0.192,-2.878c-0.551,-0.863 -1.504,-1.386 -2.529,-1.386l-13.546,0c-0.717,0 -1.39,0.255 -1.917,0.694c-0.52,-0.433 -1.189,-0.694 -1.918,-0.694l-12.434,0c-1.656,0 -3,1.343 -3,3l0,39.519c0,1.657 1.344,3 3,3l12.434,0c0.82,0 1.563,-0.329 2.104,-0.862Zm15.649,-2.138l-9.217,-20.471l8.845,-19.048l-13.546,0l-3.835,10.081l-0,-10.081l-12.434,0l0,39.519l12.434,0l-0,-10.575l4.206,10.575l13.547,0Z"/><path d="M195.562,166.616l-9.216,-20.471l8.845,-19.048l-13.546,0l-3.836,10.081l0,-10.081l-12.433,0l0,39.519l12.433,0l0,-10.575l4.207,10.575l13.546,0Z" style="fill:#eace4f;fill-rule:nonzero;"/><path d="M179.914,168.754c0.548,0.542 1.298,0.862 2.102,0.862l13.546,0c1.019,0 1.967,-0.516 2.52,-1.371c0.553,-0.855 0.634,-1.932 0.216,-2.861l-8.654,-19.219c0,-0 8.268,-17.804 8.268,-17.804c0.432,-0.929 0.359,-2.014 -0.192,-2.878c-0.551,-0.863 -1.504,-1.386 -2.529,-1.386l-13.546,0c-0.717,0 -1.391,0.255 -1.917,0.694c-0.52,-0.433 -1.189,-0.694 -1.919,-0.694l-12.433,0c-1.657,0 -3,1.343 -3,3l0,39.519c0,1.657 1.343,3 3,3l12.433,0c0.82,0 1.564,-0.329 2.105,-0.862Zm15.648,-2.138l-9.216,-20.471l8.845,-19.048l-13.546,0l-3.836,10.081l0,-10.081l-12.433,0l0,39.519l12.433,0l0,-10.575l4.207,10.575l13.546,0Z"/><path d="M227.233,166.616l-9.216,-20.471l8.845,-19.048l-13.547,0l-3.835,10.081l0,-10.081l-12.433,0l0,39.519l12.433,0l0,-10.575l4.207,10.575l13.546,0Z" style="fill:#eace4f;fill-rule:nonzero;"/><path d="M211.585,168.754c0.548,0.542 1.298,0.862 2.102,0.862l13.546,0c1.018,0 1.967,-0.516 2.52,-1.371c0.552,-0.855 0.634,-1.932 0.216,-2.861l-8.654,-19.219c0,-0 8.268,-17.804 8.268,-17.804c0.432,-0.929 0.359,-2.014 -0.192,-2.878c-0.551,-0.863 -1.505,-1.386 -2.529,-1.386l-13.547,0c-0.716,0 -1.39,0.255 -1.916,0.694c-0.52,-0.433 -1.189,-0.694 -1.919,-0.694l-12.433,0c-1.657,0 -3,1.343 -3,3l0,39.519c0,1.657 1.343,3 3,3l12.433,0c0.82,0 1.563,-0.329 2.105,-0.862Zm15.648,-2.138l-9.216,-20.471l8.845,-19.048l-13.547,0l-3.835,10.081l0,-10.081l-12.433,0l0,39.519l12.433,0l0,-10.575l4.207,10.575l13.546,0Z"/><path d="M258.904,166.616l-9.217,-20.471l8.846,-19.048l-13.547,0l-3.835,10.081l0,-10.081l-12.433,0l-0,39.519l12.433,0l0,-10.575l4.206,10.575l13.547,0Z" style="fill:#eace4f;fill-rule:nonzero;"/><path d="M243.255,168.754c0.549,0.542 1.299,0.862 2.102,0.862l13.547,0c1.018,0 1.967,-0.516 2.52,-1.371c0.552,-0.855 0.634,-1.932 0.216,-2.861l-8.654,-19.219c0,-0 8.268,-17.804 8.268,-17.804c0.431,-0.929 0.359,-2.014 -0.192,-2.878c-0.551,-0.863 -1.505,-1.386 -2.529,-1.386l-13.547,0c-0.716,0 -1.39,0.255 -1.916,0.694c-0.52,-0.433 -1.189,-0.694 -1.919,-0.694l-12.433,0c-1.657,0 -3,1.343 -3,3l-0,39.519c-0,1.657 1.343,3 3,3l12.433,0c0.82,0 1.563,-0.329 2.104,-0.862Zm15.649,-2.138l-9.217,-20.471l8.846,-19.048l-13.547,0l-3.835,10.081l0,-10.081l-12.433,0l-0,39.519l12.433,0l0,-10.575l4.206,10.575l13.547,0Z"/><path d="M290.575,166.616l-9.217,-20.471l8.846,-19.048l-13.547,0l-3.835,10.081l-0,-10.081l-12.433,0l-0,39.519l12.433,0l-0,-10.575l4.206,10.575l13.547,0Z" style="fill:#eace4f;fill-rule:nonzero;"/><path d="M274.926,168.754c0.549,0.542 1.299,0.862 2.102,0.862l13.547,0c1.018,0 1.967,-0.516 2.519,-1.371c0.553,-0.855 0.634,-1.932 0.217,-2.861l-8.654,-19.219c0,-0 8.268,-17.804 8.268,-17.804c0.431,-0.929 0.359,-2.014 -0.192,-2.878c-0.551,-0.863 -1.505,-1.386 -2.529,-1.386l-13.547,0c-0.716,0 -1.39,0.255 -1.917,0.694c-0.519,-0.433 -1.188,-0.694 -1.918,-0.694l-12.433,0c-1.657,0 -3,1.343 -3,3l-0,39.519c-0,1.657 1.343,3 3,3l12.433,0c0.82,0 1.563,-0.329 2.104,-0.862Zm15.649,-2.138l-9.217,-20.471l8.846,-19.048l-13.547,0l-3.835,10.081l-0,-10.081l-12.433,0l-0,39.519l12.433,0l-0,-10.575l4.206,10.575l13.547,0Z"/><path d="M322.246,166.616l-9.217,-20.471l8.846,-19.048l-13.547,0l-3.835,10.081l-0,-10.081l-12.433,0l-0,39.519l12.433,0l-0,-10.575l4.206,10.575l13.547,0Z" style="fill:#eace4f;fill-rule:nonzero;"/><path d="M306.597,168.754c0.549,0.542 1.299,0.862 2.102,0.862l13.547,0c1.018,0 1.967,-0.516 2.519,-1.371c0.553,-0.855 0.634,-1.932 0.216,-2.861l-8.653,-19.219c-0,-0 8.268,-17.804 8.268,-17.804c0.431,-0.929 0.359,-2.014 -0.192,-2.878c-0.551,-0.863 -1.505,-1.386 -2.529,-1.386l-13.547,0c-0.717,0 -1.39,0.255 -1.917,0.694c-0.52,-0.433 -1.188,-0.694 -1.918,-0.694l-12.433,0c-1.657,0 -3,1.343 -3,3l-0,39.519c-0,1.657 1.343,3 3,3l12.433,0c0.82,0 1.563,-0.329 2.104,-0.862Zm15.649,-2.138l-9.217,-20.471l8.846,-19.048l-13.547,0l-3.835,10.081l-0,-10.081l-12.433,0l-0,39.519l12.433,0l-0,-10.575l4.206,10.575l13.547,0Z"/><path d="M353.917,166.616l-9.217,-20.471l8.846,-19.048l-13.547,0l-3.835,10.081l-0,-10.081l-12.434,0l0,39.519l12.434,0l-0,-10.575l4.206,10.575l13.547,0Z" style="fill:#eace4f;fill-rule:nonzero;"/><path d="M338.268,168.754c0.548,0.542 1.299,0.862 2.102,0.862l13.547,0c1.018,0 1.966,-0.516 2.519,-1.371c0.553,-0.855 0.634,-1.932 0.216,-2.861l-8.653,-19.219c-0,-0 8.267,-17.804 8.267,-17.804c0.432,-0.929 0.359,-2.014 -0.192,-2.878c-0.551,-0.863 -1.504,-1.386 -2.528,-1.386l-13.547,0c-0.717,0 -1.39,0.255 -1.917,0.694c-0.52,-0.433 -1.189,-0.694 -1.918,-0.694l-12.434,0c-1.656,0 -3,1.343 -3,3l0,39.519c0,1.657 1.344,3 3,3l12.434,0c0.82,0 1.563,-0.329 2.104,-0.862Zm15.649,-2.138l-9.217,-20.471l8.846,-19.048l-13.547,0l-3.835,10.081l-0,-10.081l-12.434,0l0,39.519l12.434,0l-0,-10.575l4.206,10.575l13.547,0Z"/><path d="M385.587,166.616l-9.216,-20.471l8.845,-19.048l-13.546,0l-3.835,10.081l-0,-10.081l-12.434,0l0,39.519l12.434,0l-0,-10.575l4.206,10.575l13.546,0Z" style="fill:#eace4f;fill-rule:nonzero;"/><path d="M369.939,168.754c0.548,0.542 1.298,0.862 2.102,0.862l13.546,0c1.019,0 1.967,-0.516 2.52,-1.371c0.553,-0.855 0.634,-1.932 0.216,-2.861l-8.653,-19.219c-0,-0 8.267,-17.804 8.267,-17.804c0.432,-0.929 0.359,-2.014 -0.192,-2.878c-0.551,-0.863 -1.504,-1.386 -2.529,-1.386l-13.546,0c-0.717,0 -1.391,0.255 -1.917,0.694c-0.52,-0.433 -1.189,-0.694 -1.918,-0.694l-12.434,0c-1.657,0 -3,1.343 -3,3l0,39.519c0,1.657 1.343,3 3,3l12.434,0c0.819,0 1.563,-0.329 2.104,-0.862Zm15.648,-2.138l-9.216,-20.471l8.845,-19.048l-13.546,0l-3.835,10.081l-0,-10.081l-12.434,0l0,39.519l12.434,0l-0,-10.575l4.206,10.575l13.546,0Z"/><path d="M417.258,166.616l-9.216,-20.471l8.845,-19.048l-13.547,0l-3.835,10.081l0,-10.081l-12.433,0l0,39.519l12.433,0l0,-10.575l4.207,10.575l13.546,0Z" style="fill:#eace4f;fill-rule:nonzero;"/><path d="M401.61,168.754c0.548,0.542 1.298,0.862 2.102,0.862l13.546,0c1.018,0 1.967,-0.516 2.52,-1.371c0.552,-0.855 0.634,-1.932 0.216,-2.861l-8.654,-19.219c0,-0 8.268,-17.804 8.268,-17.804c0.432,-0.929 0.359,-2.014 -0.192,-2.878c-0.551,-0.863 -1.504,-1.386 -2.529,-1.386l-13.547,0c-0.716,0 -1.39,0.255 -1.916,0.694c-0.52,-0.433 -1.189,-0.694 -1.919,-0.694l-12.433,0c-1.657,0 -3,1.343 -3,3l0,39.519c0,1.657 1.343,3 3,3l12.433,0c0.82,0 1.563,-0.329 2.105,-0.862Zm15.648,-2.138l-9.216,-20.471l8.845,-19.048l-13.547,0l-3.835,10.081l0,-10.081l-12.433,0l0,39.519l12.433,0l0,-10.575l4.207,10.575l13.546,0Z"/><path d="M448.929,166.616l-9.217,-20.471l8.846,-19.048l-13.547,0l-3.835,10.081l0,-10.081l-12.433,0l-0,39.519l12.433,0l0,-10.575l4.206,10.575l13.547,0Z" style="fill:#eace4f;fill-rule:nonzero;"/><path d="M433.28,168.754c0.549,0.542 1.299,0.862 2.102,0.862l13.547,0c1.018,0 1.967,-0.516 2.52,-1.371c0.552,-0.855 0.634,-1.932 0.216,-2.861l-8.654,-19.219c0,-0 8.268,-17.804 8.268,-17.804c0.431,-0.929 0.359,-2.014 -0.192,-2.878c-0.551,-0.863 -1.505,-1.386 -2.529,-1.386l-13.547,0c-0.716,0 -1.39,0.255 -1.916,0.694c-0.52,-0.433 -1.189,-0.694 -1.919,-0.694l-12.433,0c-1.657,0 -3,1.343 -3,3l-0,39.519c-0,1.657 1.343,3 3,3l12.433,0c0.82,0 1.563,-0.329 2.104,-0.862Zm15.649,-2.138l-9.217,-20.471l8.846,-19.048l-13.547,0l-3.835,10.081l0,-10.081l-12.433,0l-0,39.519l12.433,0l0,-10.575l4.206,10.575l13.547,0Z"/><path d="M480.6,166.616l-9.217,-20.471l8.846,-19.048l-13.547,0l-3.835,10.081l0,-10.081l-12.433,0l-0,39.519l12.433,0l0,-10.575l4.206,10.575l13.547,0Z" style="fill:#eace4f;fill-rule:nonzero;"/><path d="M464.951,168.754c0.549,0.542 1.299,0.862 2.102,0.862l13.547,0c1.018,0 1.967,-0.516 2.519,-1.371c0.553,-0.855 0.634,-1.932 0.217,-2.861l-8.654,-19.219c0,-0 8.268,-17.804 8.268,-17.804c0.431,-0.929 0.359,-2.014 -0.192,-2.878c-0.551,-0.863 -1.505,-1.386 -2.529,-1.386l-13.547,0c-0.716,0 -1.39,0.255 -1.917,0.694c-0.519,-0.433 -1.188,-0.694 -1.918,-0.694l-12.433,0c-1.657,0 -3,1.343 -3,3l-0,39.519c-0,1.657 1.343,3 3,3l12.433,0c0.82,0 1.563,-0.329 2.104,-0.862Zm15.649,-2.138l-9.217,-20.471l8.846,-19.048l-13.547,0l-3.835,10.081l0,-10.081l-12.433,0l-0,39.519l12.433,0l0,-10.575l4.206,10.575l13.547,0Z"/></g></g></svg>